<?xml version="1.0" encoding="UTF-8" standalone="no"?>
<!-- Created with Inkscape (http://www.inkscape.org/) -->

<svg
   width="500"
   height="500"
   viewBox="0 0 132.29169 132.29169"
   version="1.1"
   id="svg1"
   inkscape:version="1.4.3 (0d15f75042, 2025-12-25)"
   sodipodi:docname="cl-logoraz.svg"
   inkscape:export-filename="cl-lograz.png"
   inkscape:export-xdpi="96"
   inkscape:export-ydpi="96"
   xmlns:inkscape="http://www.inkscape.org/namespaces/inkscape"
   xmlns:sodipodi="http://sodipodi.sourceforge.net/DTD/sodipodi-0.dtd"
   xmlns="http://www.w3.org/2000/svg"
   xmlns:svg="http://www.w3.org/2000/svg">
  <sodipodi:namedview
     id="namedview1"
     pagecolor="#505050"
     bordercolor="#ffffff"
     borderopacity="1"
     inkscape:showpageshadow="0"
     inkscape:pageopacity="0"
     inkscape:pagecheckerboard="1"
     inkscape:deskcolor="#505050"
     inkscape:document-units="mm"
     inkscape:zoom="0.97953832"
     inkscape:cx="220.0016"
     inkscape:cy="216.42849"
     inkscape:window-width="1728"
     inkscape:window-height="1083"
     inkscape:window-x="0"
     inkscape:window-y="0"
     inkscape:window-maximized="1"
     inkscape:current-layer="layer1" />
  <defs
     id="defs1">
    <rect
       x="-466.54633"
       y="61.253345"
       width="304.22495"
       height="311.37119"
       id="rect2" />
    <rect
       x="-357.31119"
       y="141.90359"
       width="207.24049"
       height="216.4285"
       id="rect1" />
    <clipPath
       clipPathUnits="userSpaceOnUse"
       id="clipPath1">
      <path
         style="fill:#000000;stroke-width:1"
         d="m 99.561977,88.480129 c -2.48767,-0.638117 -2.836947,-0.760047 -4.5882,-1.601713 -2.296681,-1.103805 -4.09379,-2.422819 -6.281023,-4.610053 -3.419163,-3.419163 -5.178436,-6.519865 -6.350127,-11.192047 -1.514264,-6.038199 -0.477396,-12.519999 2.865334,-17.912157 2.275983,-3.671385 5.786464,-6.859929 9.660422,-8.774491 1.375283,-0.679683 5.968177,-2.189578 6.660397,-2.189578 0.13699,0 0.22601,1.308089 0.22601,3.321238 v 3.321238 l -0.86558,0.160385 c -2.261542,0.419042 -5.312262,2.163744 -7.645287,4.372327 -1.136914,1.076272 -3.491905,4.302464 -3.491905,4.783699 0,0.112045 -0.20834,0.646948 -0.462978,1.188669 -1.04897,2.231583 -1.454261,6.515444 -0.901412,9.52776 0.24197,1.318429 1.596345,4.918472 2.062414,5.482066 0.124251,0.150252 0.68543,0.912135 1.247066,1.693074 1.847453,2.56884 5.014804,4.793922 8.379072,5.88635 l 1.66832,0.541726 0.005,3.289221 c 0.003,1.80907 -0.0208,3.279307 -0.0525,3.267192 -0.0317,-0.01212 -0.99254,-0.261824 -2.135112,-0.554906 z m 8.938203,-2.802953 0.0639,-3.379888 1.73116,-0.514157 c 3.98837,-1.184543 7.54586,-4.01519 9.64911,-7.677677 1.07919,-1.87923 1.27595,-2.382369 1.91534,-4.897721 0.41476,-1.631664 0.47682,-2.367425 0.36993,-4.385627 -0.21671,-4.091665 -1.63845,-7.527301 -4.35892,-10.533312 -2.25131,-2.487615 -4.83472,-4.120745 -7.97939,-5.04427 l -1.44265,-0.423672 v -3.271909 c 0,-1.799551 0.0546,-3.326498 0.1213,-3.393213 0.19637,-0.196368 2.39858,0.264515 4.26433,0.89245 8.11522,2.731254 14.36256,9.923852 15.80521,18.196616 1.85152,10.617404 -3.16772,20.732809 -12.69358,25.581698 -2.13004,1.084241 -5.64358,2.23057 -6.83678,2.23057 h -0.67282 z m -4.55258,-8.396354 c -4.975323,-0.535303 -9.297906,-4.20868 -10.386775,-8.826802 -0.962591,-4.082563 0.10414,-7.96698 3.00046,-10.925913 1.466276,-1.497976 3.523015,-2.701457 5.539735,-3.241525 1.36091,-0.364442 4.42498,-0.400608 5.86262,-0.0692 1.71713,0.395838 4.23218,1.702962 5.52091,2.869332 1.05466,0.95453 2.57229,3.09461 2.57907,3.636881 0.001,0.09521 -1.04724,0.173117 -2.32985,0.173117 h -2.33201 l -1.13166,-1.017461 c -2.59594,-2.333966 -6.70485,-2.590432 -9.70149,-0.605536 -2.540909,1.683028 -3.790724,5.426814 -2.867026,8.58809 0.48995,1.676815 1.107813,2.580095 2.592776,3.790497 3.17203,2.585533 8.17383,2.180133 10.75189,-0.871444 0.50179,-0.593961 0.84357,-1.191213 0.75951,-1.32723 -0.10042,-0.16248 -1.7316,-0.247306 -4.75567,-0.247306 h -4.60283 v -1.84658 -1.84658 h 7.50968 7.50968 l -0.14284,1.211818 c -0.22693,1.925172 -0.74569,3.526846 -1.60646,4.959977 -0.96894,1.613231 -1.31417,2.015808 -2.65223,3.092736 -2.51751,2.026211 -5.6238,2.879016 -9.11749,2.503125 z"
         id="path2" />
    </clipPath>
    <clipPath
       clipPathUnits="userSpaceOnUse"
       id="clipPath1-7">
      <rect
         width="200"
         height="177"
         id="rect1-5"
         x="-200"
         y="0"
         transform="scale(-1,1)" />
    </clipPath>
  </defs>
  <g
     inkscape:label="Final"
     inkscape:groupmode="layer"
     id="layer1">
    <g
       id="g10"
       style="fill-rule:nonzero"
       inkscape:label="parens">
      <path
         id="path9"
         style="fill:#5e81ac;fill-opacity:1;fill-rule:nonzero;stroke-width:0.310569"
         d="M 78.225199,6.6662567 V 26.011329 a 42.053375,42.053375 0 0 1 29.973881,40.134501 42.053375,42.053375 0 0 1 -29.973881,40.1345 v 19.34508 A 60.699047,60.699047 0 0 0 126.84497,66.14583 60.699047,60.699047 0 0 0 78.225199,6.6662567 Z M 54.066467,6.8130177 A 60.699047,60.699047 0 0 0 5.4466965,66.14583 60.699047,60.699047 0 0 0 54.066467,125.47865 V 106.28033 A 42.053375,42.053375 0 0 1 24.092586,66.14583 42.053375,42.053375 0 0 1 54.066467,26.011329 Z"
         inkscape:label="bra" />
      <path
         id="path9-9"
         style="fill:#d8dee9;fill-opacity:1;fill-rule:nonzero;stroke-width:0.310569"
         d="M 78.220017,6.6672933 V 26.012882 A 42.053375,42.053375 0 0 1 108.18977,66.145833 42.053375,42.053375 0 0 1 78.220017,106.27878 v 19.34559 A 60.699047,60.699047 0 0 0 126.83566,66.145833 60.699047,60.699047 0 0 0 78.220017,6.6672933 Z"
         inkscape:label="ket" />
    </g>
    <path
       d="m 100,4.886 96.549,167.228 H 146.342 L 123.184,132.003 H 76.816 L 53.658,172.114 H 3.451 L 53.078,86.157 H 96.367 L 74.723,48.669 Z"
       fill="#2d3c50"
       vector-effect="non-scaling-stroke"
       stroke-width="3"
       stroke="rgb(154,154,154)"
       stroke-linejoin="miter"
       stroke-linecap="butt"
       stroke-miterlimit="4"
       id="path15"
       style="opacity:0.96;isolation:isolate;fill:#646973;fill-opacity:1;stroke:#c4c6cb;stroke-width:2.13609;stroke-miterlimit:4;stroke-dasharray:none;stroke-opacity:1"
       clip-path="url(#clipPath1-7)"
       transform="matrix(0.32580512,0,0,0.32580512,33.565321,29.256154)" />
  </g>
</svg>
